<svg xmlns="http://www.w3.org/2000/svg" xml:space="preserve" viewBox="0 0 19.3 23">
  <!-- File icon with small data lines to suggest "data file" -->
  <path d="M18 5.8h-3.6c-.3 0-.5-.2-.5-.5V2.6c0-.3-.2-.5-.5-.5s-.5.2-.5.5v2.6c0 .9.7 1.6 1.6 1.6h3.1v14.6c0 .3-.2.5-.5.5H2.4c-.3 0-.5-.2-.5-.5V1.6c-.1-.3.2-.6.5-.6h11.3l4 3.5c.2.2.5.2.7 0s.2-.5 0-.7L14.2.1c-.1-.1-.2-.1-.3-.1H2.4C1.5 0 .8.7.8 1.6v19.9c0 .8.7 1.5 1.6 1.5H17c.9 0 1.6-.7 1.6-1.6V6.3c0-.3-.3-.5-.6-.5" style="fill:#a0a0a0"/>
  <!-- Data lines inside file -->
  <line x1="4.5" y1="10" x2="14.5" y2="10" stroke="#a0a0a0" stroke-width=".8" stroke-linecap="round"/>
  <line x1="4.5" y1="12.5" x2="12" y2="12.5" stroke="#a0a0a0" stroke-width=".8" stroke-linecap="round"/>
  <line x1="4.5" y1="15" x2="14.5" y2="15" stroke="#a0a0a0" stroke-width=".8" stroke-linecap="round"/>
  <line x1="4.5" y1="17.5" x2="10" y2="17.5" stroke="#a0a0a0" stroke-width=".8" stroke-linecap="round"/>
</svg>
