<svg xmlns="http://www.w3.org/2000/svg" height="24px" viewBox="0 -960 960 960" width="24px" fill="#e8eaed"><path d="M480-80q-83 0-156-31.5T197-197q-54-54-85.5-127T80-480q0-83 31.5-156T197-763q54-54 127-85.5T480-880q83 0 156 31.5T763-763q54 54 85.5 127T880-480q0 83-31.5 156T763-197q-54 54-127 85.5T480-80Zm0-80q134 0 227-93t93-227q0-134-93-227t-227-93q-134 0-227 93t-93 227q0 134 93 227t227 93Zm-40-200h80v-80h80v-80h-80v-80h-80v80h-80v80h80v80Zm-200 0q0-83 45-152.5T406-620l-28-48q-87 35-142.5 113T180-400h60Zm520 0q0-77-55.5-155T502-668l-28 48q76 39 121 108.5T640-360h60Z"/></svg>
